<svg class="svg-defs" style="display:none;position:absolute;width:0;height:0;overflow:hidden;" aria-hidden="true">
	<defs>
		<symbol id="icon-facebook" viewBox="0 0 32 32">
			<path d="M19 6h5v-6h-5c-3.86 0-7 3.14-7 7v3h-4v6h4v16h6v-16h5l1-6h-6v-3c0-0.542 0.458-1 1-1z"/>
		</symbol>
		<symbol id="icon-facebook-square" viewBox="0 0 32 32">
			<path d="M29 0h-26c-1.65 0-3 1.35-3 3v26c0 1.65 1.35 3 3 3h13v-14h-4v-4h4v-2c0-3.306 2.694-6 6-6h4v4h-4c-1.1 0-2 0.9-2 2v2h6l-1 4h-5v14h9c1.65 0 3-1.35 3-3v-26c0-1.65-1.35-3-3-3z"/>
		</symbol>
		<symbol id="icon-instagram" viewBox="0 0 32 32">
			<path d="M16 2.881c4.275 0 4.781 0.019 6.462 0.094 1.563 0.069 2.406 0.331 2.969 0.55 0.744 0.288 1.281 0.638 1.837 1.194 0.563 0.563 0.906 1.094 1.2 1.838 0.219 0.563 0.481 1.412 0.55 2.969 0.075 1.688 0.094 2.194 0.094 6.463s-0.019 4.781-0.094 6.463c-0.069 1.563-0.331 2.406-0.55 2.969-0.288 0.744-0.637 1.281-1.194 1.837-0.563 0.563-1.094 0.906-1.837 1.2-0.563 0.219-1.413 0.481-2.969 0.55-1.688 0.075-2.194 0.094-6.463 0.094s-4.781-0.019-6.463-0.094c-1.563-0.069-2.406-0.331-2.969-0.55-0.744-0.288-1.281-0.637-1.838-1.194-0.563-0.563-0.906-1.094-1.2-1.837-0.219-0.563-0.481-1.413-0.55-2.969-0.075-1.688-0.094-2.194-0.094-6.463s0.019-4.781 0.094-6.463c0.069-1.563 0.331-2.406 0.55-2.969 0.288-0.744 0.638-1.281 1.194-1.838 0.563-0.563 1.094-0.906 1.838-1.2 0.563-0.219 1.412-0.481 2.969-0.55 1.681-0.075 2.188-0.094 6.463-0.094zM16 0c-4.344 0-4.887 0.019-6.594 0.094-1.7 0.075-2.869 0.35-3.881 0.744-1.056 0.412-1.95 0.956-2.837 1.85-0.894 0.888-1.438 1.781-1.85 2.831-0.394 1.019-0.669 2.181-0.744 3.881-0.075 1.713-0.094 2.256-0.094 6.6s0.019 4.887 0.094 6.594c0.075 1.7 0.35 2.869 0.744 3.881 0.413 1.056 0.956 1.95 1.85 2.837 0.887 0.887 1.781 1.438 2.831 1.844 1.019 0.394 2.181 0.669 3.881 0.744 1.706 0.075 2.25 0.094 6.594 0.094s4.888-0.019 6.594-0.094c1.7-0.075 2.869-0.35 3.881-0.744 1.050-0.406 1.944-0.956 2.831-1.844s1.438-1.781 1.844-2.831c0.394-1.019 0.669-2.181 0.744-3.881 0.075-1.706 0.094-2.25 0.094-6.594s-0.019-4.887-0.094-6.594c-0.075-1.7-0.35-2.869-0.744-3.881-0.394-1.063-0.938-1.956-1.831-2.844-0.887-0.887-1.781-1.438-2.831-1.844-1.019-0.394-2.181-0.669-3.881-0.744-1.712-0.081-2.256-0.1-6.6-0.1v0z"/>
			<path d="M16 7.781c-4.537 0-8.219 3.681-8.219 8.219s3.681 8.219 8.219 8.219 8.219-3.681 8.219-8.219c0-4.537-3.681-8.219-8.219-8.219zM16 21.331c-2.944 0-5.331-2.387-5.331-5.331s2.387-5.331 5.331-5.331c2.944 0 5.331 2.387 5.331 5.331s-2.387 5.331-5.331 5.331z"/>
			<path d="M26.462 7.456c0 1.060-0.859 1.919-1.919 1.919s-1.919-0.859-1.919-1.919c0-1.060 0.859-1.919 1.919-1.919s1.919 0.859 1.919 1.919z"/>
		</symbol>
		<symbol id="icon-twitter" viewBox="0 0 32 32">
			<path d="M32 7.075c-1.175 0.525-2.444 0.875-3.769 1.031 1.356-0.813 2.394-2.1 2.887-3.631-1.269 0.75-2.675 1.3-4.169 1.594-1.2-1.275-2.906-2.069-4.794-2.069-3.625 0-6.563 2.938-6.563 6.563 0 0.512 0.056 1.012 0.169 1.494-5.456-0.275-10.294-2.888-13.531-6.862-0.563 0.969-0.887 2.1-0.887 3.3 0 2.275 1.156 4.287 2.919 5.463-1.075-0.031-2.087-0.331-2.975-0.819 0 0.025 0 0.056 0 0.081 0 3.181 2.263 5.838 5.269 6.437-0.55 0.15-1.131 0.231-1.731 0.231-0.425 0-0.831-0.044-1.237-0.119 0.838 2.606 3.263 4.506 6.131 4.563-2.25 1.762-5.075 2.813-8.156 2.813-0.531 0-1.050-0.031-1.569-0.094 2.913 1.869 6.362 2.95 10.069 2.95 12.075 0 18.681-10.006 18.681-18.681 0-0.287-0.006-0.569-0.019-0.85 1.281-0.919 2.394-2.075 3.275-3.394z"/>
		</symbol>
		<symbol id="icon-crunchbase" viewBox="0 0 32 32">
			<path d="M28.8 0h-25.6c-1.764 0.008-3.192 1.436-3.2 3.199v25.601c0.008 1.764 1.436 3.192 3.199 3.2h25.601c1.764-0.008 3.192-1.436 3.2-3.199v-25.601c-0.008-1.764-1.436-3.192-3.199-3.2h-0.001zM9.393 19.287c0.343 0.16 0.744 0.253 1.167 0.253 1.131 0 2.106-0.667 2.553-1.629l0.007-0.017h2.213c-0.543 2.171-2.477 3.753-4.78 3.753-2.717 0-4.92-2.203-4.92-4.92s2.203-4.92 4.92-4.92c2.303 0 4.237 1.582 4.772 3.719l0.007 0.034h-2.213c-0.454-0.98-1.429-1.647-2.56-1.647-1.554 0-2.813 1.26-2.813 2.813 0 1.131 0.667 2.106 1.629 2.553l0.017 0.007zM24.52 20.413c-0.402 0.347-0.87 0.631-1.381 0.829l-0.032 0.011c-0.527 0.21-1.137 0.333-1.776 0.333-1.024 0-1.975-0.314-2.761-0.85l0.017 0.011v0.507h-2.013v-14.093h2v5.48c0.677-0.463 1.497-0.767 2.382-0.839l0.018-0.001h0.36c0.002 0 0.005 0 0.008 0 2.703 0 4.893 2.191 4.893 4.893 0 1.486-0.662 2.817-1.708 3.715l-0.007 0.005zM24.223 16.725c0 0.018 0.001 0.040 0.001 0.061 0 1.549-1.256 2.805-2.805 2.805s-2.805-1.256-2.805-2.805c0-0.021 0-0.043 0.001-0.064l-0 0.003c0.034-1.523 1.277-2.744 2.805-2.744s2.77 1.221 2.805 2.741l0 0.003z"/>
		</symbol>
		<symbol id="icon-linkedin" viewBox="0 0 32 32">
			<path d="M12 12h5.535v2.837h0.079c0.77-1.381 2.655-2.837 5.464-2.837 5.842 0 6.922 3.637 6.922 8.367v9.633h-5.769v-8.54c0-2.037-0.042-4.657-3.001-4.657-3.005 0-3.463 2.218-3.463 4.509v8.688h-5.767v-18z"/>
			<path d="M2 12h6v18h-6v-18z"/>
			<path d="M8 7c0 1.657-1.343 3-3 3s-3-1.343-3-3c0-1.657 1.343-3 3-3s3 1.343 3 3z"/>
		</symbol>
		<symbol id="icon-youtube" viewBox="0 0 32 32">
			<path d="M31.681 9.6c0 0-0.313-2.206-1.275-3.175-1.219-1.275-2.581-1.281-3.206-1.356-4.475-0.325-11.194-0.325-11.194-0.325h-0.012c0 0-6.719 0-11.194 0.325-0.625 0.075-1.987 0.081-3.206 1.356-0.963 0.969-1.269 3.175-1.269 3.175s-0.319 2.588-0.319 5.181v2.425c0 2.587 0.319 5.181 0.319 5.181s0.313 2.206 1.269 3.175c1.219 1.275 2.819 1.231 3.531 1.369 2.563 0.244 10.881 0.319 10.881 0.319s6.725-0.012 11.2-0.331c0.625-0.075 1.988-0.081 3.206-1.356 0.962-0.969 1.275-3.175 1.275-3.175s0.319-2.587 0.319-5.181v-2.425c-0.006-2.588-0.325-5.181-0.325-5.181zM12.694 20.15v-8.994l8.644 4.513-8.644 4.481z"/>
		</symbol>
		<symbol id="icon-rss" viewBox="0 0 20.489 20.489">
			<path d="M13.229,19.118c0-6.454-5.243-11.778-11.777-11.778c-0.968,0-1.372,0.807-1.372,1.695c0,0.968,0.403,1.693,1.372,1.693c4.598,0,8.308,3.711,8.308,8.309c0,0.968,0.807,1.371,1.694,1.371 C12.423,20.489,13.229,20.086,13.229,19.118 M20.489,19.037C20.489,8.551,11.938,0,1.452,0C0.484,0,0,0.807,0,1.774c0,0.968,0.403,1.775,1.452,1.775c8.55,0,15.487,6.938,15.487,15.488c0,0.968,0.807,1.452,1.775,1.452 C19.763,20.489,20.489,20.005,20.489,19.037 M5.889,17.585c0,1.613-1.291,2.904-2.904,2.904c-1.613,0-2.904-1.291-2.904-2.904c0-1.613,1.291-2.904,2.904-2.904C4.598,14.601,5.889,15.972,5.889,17.585"/>
		</symbol>
		<symbol id="icon-plus" viewBox="0 0 32 32">
			<path d="M31 12h-11v-11c0-0.552-0.448-1-1-1h-6c-0.552 0-1 0.448-1 1v11h-11c-0.552 0-1 0.448-1 1v6c0 0.552 0.448 1 1 1h11v11c0 0.552 0.448 1 1 1h6c0.552 0 1-0.448 1-1v-11h11c0.552 0 1-0.448 1-1v-6c0-0.552-0.448-1-1-1z"/>
		</symbol>
	</defs>
</svg>