<svg xmlns="http://www.w3.org/2000/svg" width="87.443" height="87.443" viewBox="0 0 87.443 87.443">
  <g transform="translate(11.461 62.399)">
    <path d="M6.281,8.375a3.4,3.4,0,1,0-3.4-3.4A3.395,3.395,0,0,0,6.281,8.375ZM48.729,1.583a3.4,3.4,0,0,0,3.4-3.4,3.4,3.4,0,0,0-3.4-3.4,3.4,3.4,0,0,0-3.4,3.4A3.4,3.4,0,0,0,48.729,1.583ZM-5.6-5.208a3.4,3.4,0,0,0,3.4-3.4A3.4,3.4,0,0,0-5.6-12,3.4,3.4,0,0,0-9-8.6,3.4,3.4,0,0,0-5.6-5.208Z" transform="translate(9 12)" fill="none" stroke="#2b2e34" stroke-linejoin="round" stroke-width="1.5"/>
  </g>
  <g transform="translate(18.252 38.628)">
    <path d="M4.188,0V27.167H-6" transform="translate(6)" fill="none" stroke="#2b2e34" stroke-linejoin="round" stroke-width="1.5"/>
  </g>
  <g transform="translate(59.003 38.628)">
    <path d="M0,0V33.958H6.792" fill="none" stroke="#2b2e34" stroke-linejoin="round" stroke-width="1.5"/>
  </g>
  <g transform="translate(30.138 28.44)">
    <path d="M3.49,0V50.938H-5" transform="translate(5)" fill="none" stroke="#2b2e34" stroke-linejoin="round" stroke-width="1.5"/>
  </g>
  <g transform="translate(45.419 79.378)">
    <path d="M1.4,2.792A3.4,3.4,0,0,1-2-.6,3.4,3.4,0,0,1,1.4-4a3.4,3.4,0,0,1,3.4,3.4A3.4,3.4,0,0,1,1.4,2.792Z" transform="translate(2 4)" fill="none" stroke="#2b2e34" stroke-linejoin="round" stroke-width="1.5"/>
  </g>
  <g transform="translate(48.815 25.045)">
    <path d="M0,0V54.333" fill="none" stroke="#2b2e34" stroke-linejoin="round" stroke-width="1.5"/>
  </g>
  <g transform="translate(1.273 1.274)">
    <path d="M8.375,22.333H1.583A13.577,13.577,0,0,1-.108-4.716c0-.039-.007-.078-.007-.117A15.28,15.28,0,0,1,15.167-20.115a15.159,15.159,0,0,1,7.8,2.184A20.376,20.376,0,0,1,42.333-32,20.376,20.376,0,0,1,62.708-11.625c0,.469-.039.927-.07,1.389a16.978,16.978,0,0,1-6.722,32.57h-3.4" transform="translate(12 32)" fill="none" stroke="#2b2e34" stroke-linejoin="round" stroke-width="1.5"/>
  </g>
</svg>