<svg xmlns="http://www.w3.org/2000/svg" width="86.169" height="80.651" viewBox="0 0 86.169 80.651">
  <g transform="translate(1.273 1.273)">
    <path d="M10.469,30.011a5.094,5.094,0,1,1-5.094-5.094A5.093,5.093,0,0,1,10.469,30.011Zm37.354,0a5.094,5.094,0,1,1-5.094-5.094A5.093,5.093,0,0,1,47.823,30.011Zm-49.24-8.49h49.24a6.792,6.792,0,0,0,0-13.583H-3.115L-15-32.812H49.521M69.9-43H59.708L47.823,7.938m-8.49-33.958-3.4,27.167M5.375-26.021l3.4,27.167M22.354-26.021V1.146" transform="translate(15 43)" fill="none" stroke="#2b2e34" stroke-linejoin="round" stroke-width="1.5"/>
  </g>
</svg>