<svg xmlns="http://www.w3.org/2000/svg" width="97.902" height="76.712" viewBox="0 0 97.902 76.712">
  <path d="M0,26.062C.873,5.214,5.3-12.156,12.1-27.217a5.276,5.276,0,0,1,4.822-3.063H33.072a5.317,5.317,0,0,1,3.757,1.552l5.528,5.511H52.986l5.528-5.511a5.317,5.317,0,0,1,3.757-1.552H78.422a5.276,5.276,0,0,1,4.822,3.063c6.8,15.062,11.227,32.432,12.1,53.284.334,8.04-8.551,13.51-15.424,9.293-.056-.034-.112-.07-.168-.105a8.2,8.2,0,0,1-2.815-3.375C71.2,20.33,60.253,12.522,47.671,12.522S24.136,20.334,18.408,31.885A8.171,8.171,0,0,1,15.6,35.253l-.166.1C8.56,39.58-.331,34.1,0,26.062ZM35.31-7.324a10.594,10.594,0,0,1-10.593,10.6,10.6,10.6,0,0,1-10.6-10.6,10.6,10.6,0,0,1,10.6-10.6A10.593,10.593,0,0,1,35.31-7.324Zm42.38-7.063a3.531,3.531,0,0,1-3.532,3.532,3.532,3.532,0,0,1-3.532-3.532,3.532,3.532,0,0,1,3.532-3.532A3.531,3.531,0,0,1,77.69-14.387ZM67.1-3.792A3.532,3.532,0,0,1,63.565-.26a3.534,3.534,0,0,1-3.533-3.532,3.533,3.533,0,0,1,3.533-3.532A3.531,3.531,0,0,1,67.1-3.792ZM17.654-30.28v-3.532a3.531,3.531,0,0,1,3.53-3.532h7.063a3.533,3.533,0,0,1,3.533,3.532v3.532m31.785,0v-3.532a3.531,3.531,0,0,1,3.53-3.532h7.063a3.531,3.531,0,0,1,3.532,3.532v3.532" transform="translate(1.278 38.617)" fill="none" stroke="#2b2e34" stroke-linejoin="round" stroke-width="1.5"/>
  <path d="M0,0H7.063M0,7.063H7.063" transform="translate(45.419 25.996)" fill="none" stroke="#2b2e34" stroke-linejoin="round" stroke-width="1.5"/>
</svg>